HIERARCHY
ROOT Hips
{
	OFFSET 46.381401 19.162386 84.181503
	CHANNELS 6 Xposition Yposition Zposition Xrotation Yrotation Zrotation
	JOINT spine
	{
		OFFSET 0.000000 -0.359108 6.244789
		CHANNELS 3 Xrotation Yrotation Zrotation
		JOINT spine1
		{
			OFFSET 0.000000 0.000000 9.069412
			CHANNELS 3 Xrotation Yrotation Zrotation
			JOINT spine2
			{
				OFFSET 0.000000 -0.000002 8.690140
				CHANNELS 3 Xrotation Yrotation Zrotation
				JOINT Neck
				{
					OFFSET 0.000000 -1.063725 22.311195
					CHANNELS 3 Xrotation Yrotation Zrotation
					JOINT Head
					{
						OFFSET 0.000000 -0.000002 6.740814
						CHANNELS 3 Xrotation Yrotation Zrotation
						End Site
						{
							OFFSET 0.000000 5.380968 16.316498
						}
					}
				}
				JOINT RightShoulder
				{
					OFFSET -3.659161 0.509512 9.384682
					CHANNELS 3 Xrotation Yrotation Zrotation
					JOINT RightArm
					{
						OFFSET 0.000000 -0.000002 12.308899
						CHANNELS 3 Xrotation Yrotation Zrotation
						JOINT RightArmRoll
						{
							OFFSET 0.000000 -0.000002 6.213745
							CHANNELS 3 Xrotation Yrotation Zrotation
							JOINT RightForeArm
							{
								OFFSET 0.000000 -0.000002 18.098495
								CHANNELS 3 Xrotation Yrotation Zrotation
								JOINT RightForeArmRoll
								{
									OFFSET 0.000000 -0.000002 6.972794
									CHANNELS 3 Xrotation Yrotation Zrotation
									JOINT RightHand
									{
										OFFSET 0.000000 -0.000002 13.992905
										CHANNELS 3 Xrotation Yrotation Zrotation
										End Site
										{
											OFFSET 0.000000 0.000000 0.100006
										}
									}
								}
							}
						}
					}
				}
				JOINT LeftShoulder
				{
					OFFSET 3.659161 0.509512 9.384682
					CHANNELS 3 Xrotation Yrotation Zrotation
					JOINT LeftArm
					{
						OFFSET 0.000000 -0.000002 12.308899
						CHANNELS 3 Xrotation Yrotation Zrotation
						JOINT LeftArmRoll
						{
							OFFSET 0.000000 -0.000002 6.213745
							CHANNELS 3 Xrotation Yrotation Zrotation
							JOINT LeftForeArm
							{
								OFFSET 0.000000 -0.000002 18.098495
								CHANNELS 3 Xrotation Yrotation Zrotation
								JOINT LeftForeArmRoll
								{
									OFFSET 0.000000 -0.000002 6.972794
									CHANNELS 3 Xrotation Yrotation Zrotation
									JOINT LeftHand
									{
										OFFSET 0.000000 -0.000002 13.992905
										CHANNELS 3 Xrotation Yrotation Zrotation
										End Site
										{
											OFFSET 0.000000 0.000000 0.100006
										}
									}
								}
							}
						}
					}
				}
			}
		}
	}
	JOINT RightUpLeg
	{
		OFFSET -5.535149 0.851454 -1.014999
		CHANNELS 3 Xrotation Yrotation Zrotation
		JOINT RightUpLegRoll
		{
			OFFSET 0.000000 -0.000004 16.407501
			CHANNELS 3 Xrotation Yrotation Zrotation
			JOINT RightLeg
			{
				OFFSET 0.000000 0.000004 -20.318100
				CHANNELS 3 Xrotation Yrotation Zrotation
				JOINT RightLegRoll
				{
					OFFSET 0.000000 -0.000004 20.384598
					CHANNELS 3 Xrotation Yrotation Zrotation
					JOINT RightFoot
					{
						OFFSET 0.000000 -0.000002 16.966797
						CHANNELS 3 Xrotation Yrotation Zrotation
						JOINT RightToeBase
						{
							OFFSET 0.000000 -0.000002 14.183395
							CHANNELS 3 Xrotation Yrotation Zrotation
							End Site
							{
								OFFSET 0.006012 0.791744 6.868896
							}
						}
					}
				}
			}
		}
	}
	JOINT LeftUpLeg
	{
		OFFSET 5.535149 0.851454 -1.014999
		CHANNELS 3 Xrotation Yrotation Zrotation
		JOINT LeftUpLegRoll
		{
			OFFSET 0.000000 -0.000004 16.407600
			CHANNELS 3 Xrotation Yrotation Zrotation
			JOINT LeftLeg
			{
				OFFSET 0.000000 -0.000002 20.318100
				CHANNELS 3 Xrotation Yrotation Zrotation
				JOINT LeftLegRoll
				{
					OFFSET 0.000000 -0.000004 20.573097
					CHANNELS 3 Xrotation Yrotation Zrotation
					JOINT LeftFoot
					{
						OFFSET 0.000000 -0.000002 16.778305
						CHANNELS 3 Xrotation Yrotation Zrotation
						JOINT LeftToeBase
						{
							OFFSET 0.000000 -0.000004 14.183395
							CHANNELS 3 Xrotation Yrotation Zrotation
							End Site
							{
								OFFSET -0.026943 0.791746 6.868896
							}
						}
					}
				}
			}
		}
	}
}
MOTION
Frames: 5
Frame Time: 0.041667
43.389702 13.478085 93.540985 5.865331 -1.336867 0.248676 -2.262983 0.363025 -0.058108 -0.522856 0.719736 -0.105564 1.122268 0.718415 -0.114178 -11.758242 3.794516 -0.739746 10.245304 0.017295 -1.999565 -13.879363 -59.426566 -16.383023 -5.755991 -116.361042 3.688884 0.000000 0.000029 0.000001 16.943901 -9.310189 0.674596 0.000003 0.000008 -3.000002 -5.000191 -7.998782 0.000156 -21.606048 59.816529 25.530632 -20.335145 117.534223 4.600483 -0.000000 -0.000000 0.000001 18.491991 1.831369 0.205865 -0.000003 0.000000 3.000001 -5.000192 7.999781 -0.000050 -14.114455 -177.965292 -2.457670 179.999991 -0.000005 -0.927002 163.637003 1.743454 -0.795196 -0.000001 -0.000003 0.025260 67.391892 6.870418 2.293032 25.456955 -7.355616 0.000001 -12.220309 173.780039 -1.347177 -0.000004 -0.000005 -0.984197 -19.303598 0.003346 1.066292 -0.000001 0.000000 -0.239625 69.065992 -6.793297 -2.379042 25.456957 7.355614 -0.000012 
43.375198 13.442986 93.470993 5.879328 -1.342314 0.252944 -2.267916 0.364110 -0.057606 -0.532728 0.722938 -0.104479 1.112397 0.721629 -0.113131 -11.740671 3.777591 -0.725809 10.230202 -0.027467 -1.970983 -13.752966 -59.410959 -16.232928 -5.737664 -116.345265 3.711900 0.000000 0.000029 0.000000 16.979456 -9.306886 0.676134 0.000003 0.000009 -2.999999 -5.000188 -7.998783 0.000156 -21.532328 59.898669 25.441801 -20.533886 117.403411 4.789982 0.000000 -0.000000 0.000001 18.472337 1.864808 0.200086 -0.000003 0.000000 3.000001 -5.000192 7.999781 -0.000049 -14.122118 -177.970209 -2.484883 179.999991 -0.000005 -0.926005 163.755998 1.762757 -0.792494 -0.000002 -0.000003 0.023621 67.398572 6.870342 2.293200 25.456953 -7.355617 0.000000 -12.222778 173.782047 -1.324239 -0.000004 -0.000004 -0.983644 -19.195900 -0.009379 1.062054 -0.000001 -0.000000 -0.237804 69.055084 -6.793476 -2.378343 25.456952 7.355613 -0.000013 
43.407501 13.462685 93.411293 5.892547 -1.347724 0.257015 -2.272134 0.365097 -0.057047 -0.541168 0.725968 -0.103288 1.103958 0.724673 -0.111976 -11.725830 3.762487 -0.711216 10.215710 -0.074921 -1.941918 -13.625135 -59.392238 -16.081081 -5.724323 -116.333694 3.729187 0.000000 0.000029 0.000001 17.015079 -9.303078 0.677561 0.000004 0.000008 -3.000002 -5.000187 -7.998785 0.000155 -21.458284 59.982653 25.352515 -20.741077 117.272900 4.988681 -0.000000 0.000000 -0.000000 18.453595 1.898586 0.194281 -0.000002 0.000001 3.000001 -5.000192 7.999781 -0.000050 -14.132780 -177.975141 -2.511920 179.999991 -0.000005 -0.924994 163.868696 1.781047 -0.789968 -0.000001 -0.000003 0.022043 67.405047 6.870243 2.293476 25.456955 -7.355618 0.000001 -12.228340 173.785120 -1.300400 -0.000004 -0.000005 -0.983103 -19.095098 -0.023980 1.057888 -0.000001 -0.000000 -0.236064 69.044285 -6.793654 -2.377740 25.456959 7.355613 -0.000013 
43.380299 13.443884 93.348099 5.904661 -1.352588 0.261012 -2.275595 0.365925 -0.056400 -0.548091 0.728673 -0.101927 1.097038 0.727393 -0.110648 -11.712910 3.748334 -0.696458 10.200722 -0.124087 -1.912721 -13.497222 -59.371385 -15.929116 -5.717087 -116.323381 3.739468 0.000000 0.000029 0.000001 17.050391 -9.299139 0.678939 0.000004 0.000008 -3.000000 -5.000192 -7.998782 0.000157 -21.382650 60.067573 25.261369 -20.956052 117.142648 5.196020 0.000000 -0.000000 0.000002 18.436265 1.932478 0.188472 -0.000004 0.000001 3.000002 -5.000192 7.999780 -0.000049 -14.146225 -177.982053 -2.538516 179.999991 -0.000005 -0.923997 163.974291 1.799299 -0.788282 -0.000001 -0.000003 0.020532 67.411098 6.870177 2.293786 25.456957 -7.355617 0.000001 -12.237468 173.786295 -1.275532 -0.000004 -0.000003 -0.982577 -19.003506 -0.040585 1.053843 0.000000 0.000000 -0.234439 69.033692 -6.793807 -2.377319 25.456957 7.355614 -0.000013 
43.387600 13.416386 93.278595 5.915387 -1.356382 0.265053 -2.278256 0.366532 -0.055630 -0.553418 0.730898 -0.100335 1.091708 0.729637 -0.109083 -11.700791 3.734236 -0.682056 10.184248 -0.173981 -1.883776 -13.370582 -59.349474 -15.778613 -5.716476 -116.314338 3.742142 0.000001 0.000029 0.000005 17.084904 -9.295408 0.680328 0.000004 0.000008 -3.000000 -5.000189 -7.998783 0.000156 -21.304513 60.152397 25.167321 -21.176078 117.015334 5.409186 -0.000000 -0.000000 0.000001 18.420837 1.966242 0.182695 -0.000002 0.000000 3.000002 -5.000190 7.999780 -0.000052 -14.162474 -177.988992 -2.565356 179.999991 -0.000005 -0.922999 164.071690 1.816530 -0.785679 -0.000001 -0.000003 0.019088 67.416638 6.870097 2.294024 25.456962 -7.355617 0.000000 -12.250944 173.786609 -1.250323 -0.000004 -0.000005 -0.982068 -18.923210 -0.059324 1.049982 -0.000001 -0.000000 -0.232962 69.023720 -6.793924 -2.376854 25.456957 7.355613 -0.000014 
